<?xml version="1.0" encoding="UTF-8" standalone="no"?>
<svg
   xmlns:dc="http://purl.org/dc/elements/1.1/"
   xmlns:cc="http://creativecommons.org/ns#"
   xmlns:rdf="http://www.w3.org/1999/02/22-rdf-syntax-ns#"
   xmlns:svg="http://www.w3.org/2000/svg"
   xmlns="http://www.w3.org/2000/svg"
   viewBox="0 0 1072.8533 250.84"
   height="250.84"
   width="1072.8533"
   xml:space="preserve"
   id="svg2"
   version="1.1"><metadata
     id="metadata8"><rdf:RDF><cc:Work
         rdf:about=""><dc:format>image/svg+xml</dc:format><dc:type
           rdf:resource="http://purl.org/dc/dcmitype/StillImage" /></cc:Work></rdf:RDF></metadata><defs
     id="defs6" /><g
     transform="matrix(1.3333333,0,0,-1.3333333,0,250.84)"
     id="g10"><g
       transform="scale(0.1)"
       id="g12"><path
         id="path14"
         style="fill:#ffff;fill-opacity:1;fill-rule:nonzero;stroke:none"
         d="M 7201.53,257.359 7378.84,0 h 667.59 L 7531.87,715.512 7201.53,257.359" /><path
         id="path16"
         style="fill:#ffff;fill-opacity:1;fill-rule:nonzero;stroke:none"
         d="m 8046.43,1881.33 h -667.59 l -177.31,-257.37 328.62,-459.91 516.28,717.28" /><path
         id="path18"
         style="fill:#f2f136;fill-opacity:1;fill-rule:nonzero;stroke:none"
         d="m 6690.04,0 h -664.55 l 668.88,940.664 -668.88,940.666 h 664.55 L 7363.24,940.758 6690.04,0" /><path
         id="path20"
         style="fill:#ffff;fill-opacity:1;fill-rule:nonzero;stroke:none"
         d="m 5173.05,0 h 546.18 V 1881.33 H 5173.05 V 0" /><path
         id="path22"
         style="fill:#ffff;fill-opacity:1;fill-rule:nonzero;stroke:none"
         d="M 2695.07,1881.33 V 4.62891 h 546.19 V 905.223 L 3796.55,580.578 4351.64,905.16 V 4.62891 h 546.2 V 1881.33 L 3796.45,1237.09 2695.07,1881.33" /><path
         id="path24"
         style="fill:#ffff;fill-opacity:1;fill-rule:nonzero;stroke:none"
         d="m 2223.55,1128.54 c -105.06,0 -190.23,-85.17 -190.23,-190.231 0,-105.059 85.17,-190.239 190.23,-190.239 105.06,0 190.23,85.18 190.23,190.239 0,105.061 -85.17,190.231 -190.23,190.231" /><path
         id="path26"
         style="fill:#ffff;fill-opacity:1;fill-rule:nonzero;stroke:none"
         d="M 1269.79,1122.36 H 507.836 l -0.074,2.96 c -1.043,82.5 32.566,155.08 101.047,217.66 69.332,63.38 161.476,95.1 276.421,95.1 114.9,0 209.04,-31.72 282.36,-95.1 73.21,-63.34 107.89,-136.89 104.04,-220.62 z m 234.99,503.26 c -164.87,167.74 -374.43,251.64 -628.76,251.64 -254.325,0 -463.926,-83.9 -628.754,-251.64 C 82.3906,1457.84 0,1229.61 0,940.938 L 0.00390625,940.848 0,940.664 C 0,655.84 81.9492,428.609 245.848,258.898 409.746,89.1992 629.188,4.35156 904.277,4.35156 c 290.083,0 518.993,98.46844 686.693,295.51944 l -0.16,0.109 0.16,0.161 -389.8,268.121 c -82.13,-87.153 -183.86,-124.75 -296.893,-124.75 -128.136,0 -225.14,31.687 -291.07,95.109 -58.894,56.57 -98.16,115.141 -104.566,175.641 l 0.074,1.718 -0.043,19.872 H 1732.26 c 13.15,91.668 19.78,159.918 19.78,204.812 l -0.01,0.133 0.01,0.141 c 0,288.672 -82.44,516.902 -247.26,684.682" /></g></g></svg>